<?xml version="1.0" encoding="utf-8"?>
<!-- Generator: Adobe Illustrator 27.2.0, SVG Export Plug-In . SVG Version: 6.00 Build 0)  -->
<svg version="1.1" id="Layer_1" xmlns="http://www.w3.org/2000/svg" xmlns:xlink="http://www.w3.org/1999/xlink" x="0px" y="0px"
	 viewBox="0 0 500 500" style="enable-background:new 0 0 500 500;" xml:space="preserve">
<style type="text/css">
	.st0{fill:#FF0073;}
	.st1{font-family:'Anton-Regular';}
	.st2{font-size:81.9378px;}
	.st3{font-family:'BebasNeue-Regular';}
	.st4{font-size:34.8635px;}
</style>
<g>
	<path class="st0" d="M136.66,385.99c-0.29-0.01-0.6-0.1-0.86-0.02c-2.32,0.69-4.86-0.78-4.87-3.82c-0.04-12.55,0-25.09,0.05-37.64
		c0.01-2.28,1.87-4.19,3.89-4.22c2.12-0.03,3.84,1.9,3.84,4.37c-0.01,12.31-0.02,24.63-0.08,36.94c-0.01,1.05-0.44,2.1-0.68,3.16
		C137.51,385.16,137.09,385.58,136.66,385.99z"/>
	<path class="st0" d="M89.38,294.11c-7.89,2.37-14.84,6.13-21.38,10.59c-2.57,1.75-4.88,3.88-7.18,5.97
		c-2.65,2.41-5.21,4.93-7.72,7.49c-1.22,1.25-2.58,1.68-4.17,1.09c-1.55-0.57-2.62-1.77-2.61-3.38c0.04-5.81-0.21-11.68,0.47-17.43
		c1.22-10.24,5.34-19.54,11.43-27.98c1.43-1.99,3.07-3.86,4.77-5.63c2.35-2.45,4.76-4.88,7.33-7.1c2.16-1.87,4.53-3.55,6.96-5.08
		c0.95-0.6,1.18-1.18,1.07-2.1c-0.92-7.6-2.02-15.18-2.7-22.8c-0.49-5.46-0.44-10.96-0.62-16.45c-0.3-9.26,0.7-18.4,3.25-27.33
		c2.2-7.7,5.36-15.06,10.01-21.69c2.41-3.43,5.17-6.64,7.99-9.77c2.31-2.57,4.77-5.06,7.46-7.24c2.89-2.34,6.07-4.36,9.23-6.35
		c1.41-0.88,2.92-0.33,4.33,0.47c6.52,3.69,11.97,8.66,16.88,14.09c6.37,7.04,11.11,15.09,14.45,23.94
		c2.69,7.14,4.51,14.49,4.97,22.04c0.42,6.89,0.3,13.84,0,20.75c-0.31,7.11-1.07,14.2-1.74,21.3c-0.27,2.93-0.76,5.84-1.25,8.75
		c-0.18,1.03,0.15,1.71,0.98,2.2c4.86,2.91,9,6.64,12.93,10.62c4.21,4.26,7.67,9.04,10.51,14.25c3.55,6.52,5.88,13.42,7.02,20.72
		c0.92,5.91,0.86,11.82,0.34,17.75c-0.15,1.73-1.06,3.08-3.03,3.41c-1.74,0.29-3.14-0.3-4.28-1.53c-0.83-0.9-1.55-1.89-2.38-2.78
		c-6.91-7.37-15.09-13.1-24.27-17.47c-2.49-1.19-5.14-2.07-7.72-3.07c-0.94-0.36-1.56-0.15-1.82,0.93c-0.16,0.66-0.63,1.25-0.84,1.9
		c-0.92,2.98-1.43,3.28-5.05,3.41c-0.36,0.01-0.71,0.03-1.28,0.05c0.21,1.66,0.35,3.24,0.61,4.8c1.79,10.82-1.1,20.48-7.76,29.16
		c-2.2,2.87-4.58,5.62-7.03,8.29c-1.85,2.01-4.2,1.87-6.23,0.02c-6.41-5.85-11.22-12.68-13.9-20.88c-1.74-5.32-1.74-10.74-1.07-16.2
		c0.15-1.26,0.38-2.52,0.6-3.77c0.16-0.92-0.05-1.56-1.17-1.42c-3.01,0.38-4.51-1.14-5.24-3.77
		C90.26,295.95,89.78,295.07,89.38,294.11z M141.76,180.54c-17.87,0.03-35.6,0.05-53.34,0.13c-0.44,0-1.12,0.58-1.3,1.04
		c-3.25,8.57-4.5,17.48-4.56,26.55c-0.03,5.01,0.19,10.03,0.51,15.04c0.37,5.89,0.7,11.8,1.53,17.63c1.16,8.07,2.66,16.1,4.23,24.11
		c1.89,9.67,4.75,19.1,8.45,28.47c0.69-0.05,1.41-0.13,2.13-0.14c10.2-0.02,20.39-0.01,30.59-0.08c0.6,0,1.59-0.43,1.75-0.88
		c2.06-5.85,4.36-11.65,5.87-17.63c2.09-8.27,3.87-16.63,5.21-25.04c1.41-8.82,2.39-17.72,3.1-26.61c0.5-6.33,0.37-12.71,0.3-19.07
		C146.15,196.04,144.41,188.3,141.76,180.54z M90.82,172.8c15.89-0.02,31.69-0.04,47.4-0.06c-6-11.16-11.84-18.02-23.58-26.25
		C104.61,153.47,96.4,162.05,90.82,172.8z M79.67,260.01c-16.13,11.57-25.14,26.9-26.19,47.11c5.02-4.77,9.95-8.94,15.68-11.98
		c5.7-3.03,11.6-5.69,17.26-8.44C84.22,278,81.97,269.1,79.67,260.01z M174.9,306.06c-0.71-19.55-9.76-34.71-25.63-46.29
		c-2.34,9.12-4.67,18.17-7,27.24C154.35,291.11,165.3,297.37,174.9,306.06z M113.49,334.67c0.25,0.02,1.29,0.36,1.55,0.07
		c1.6-1.85,3.09-3.8,4.49-5.79c5.76-8.23,6.77-17.23,4.58-26.75c-0.26-1.12-0.79-1.63-2.1-1.61c-5.13,0.08-10.25,0.09-15.38,0.02
		c-1.32-0.02-1.82,0.47-1.96,1.63c-0.33,2.86-0.81,5.72-1.01,8.59C103,320.05,107.5,327.34,113.49,334.67z"/>
	<path class="st0" d="M117.27,356.69c0.3,1.01,0.84,2.02,0.85,3.03c0.04,12.42,0.02,24.84-0.03,37.26
		c-0.02,3.86-2.09,4.84-4.88,4.33c-1.71-0.31-2.76-1.68-2.76-3.55c0-12.83,0.02-25.66,0.06-38.49c0.01-1.77,1.03-2.92,2.7-3.45
		C114.61,355.38,115.91,355.58,117.27,356.69z"/>
	<path class="st0" d="M76.77,309.54c0.99-1.18,2.25-1.55,3.71-1.03c1.97,0.71,2.72,1.83,2.72,4.02
		c-0.01,12.41-0.02,24.83-0.07,37.24c0,0.73-0.19,1.49-0.43,2.18c-0.59,1.68-1.91,2.41-3.97,2.11c-1.65-0.24-2.84-1.11-3.08-2.85
		c-0.12-0.92-0.24-1.85-0.24-2.77c0-11.77,0-23.54,0.08-35.31c0.01-1.24,0.52-2.47,0.8-3.7C76.45,309.47,76.61,309.51,76.77,309.54z
		"/>
	<path class="st0" d="M93.01,341.54c1.92-2.17,5.9-1.38,6.48,1.68c0.13,0.68,0.24,1.38,0.24,2.07c0,12.02-0.02,24.04-0.05,36.05
		c-0.01,2.87-0.74,4.12-2.7,4.64c-2.74,0.74-4.94-0.86-4.94-3.61c0.01-12.72,0.01-25.45,0.09-38.17
		C92.13,343.31,92.7,342.42,93.01,341.54z"/>
	<path class="st0" d="M148.62,309.32c1.45-1.3,2.83-1.29,4.37-0.71c1.72,0.63,2.19,2.08,2.29,3.57c0.15,2.33,0.03,4.68,0.03,7.03
		c-0.01,9.9-0.02,19.8-0.05,29.7c0,0.69-0.1,1.38-0.22,2.06c-0.44,2.47-1.51,3.23-4.21,3.04c-1.72-0.12-3.2-1.79-3.2-3.71
		c0-11.54,0.02-23.08,0.04-34.61c0-1.17-0.11-2.36,0.05-3.51C147.84,311.19,148.3,310.26,148.62,309.32z"/>
	<path class="st0" d="M100.72,205.76c7.89-8.14,20.11-7.62,27.39-0.46c7.81,7.69,7.17,18.46,1.03,25.43
		c-8.34,9.46-21.43,7.96-28.38,1.17C93.4,224.72,93.26,212.41,100.72,205.76z M122.72,226.61c4.56-4.46,4.62-11.65,0.05-16
		c-4.77-4.54-11.79-4.79-17.04,0.7c-4.15,4.35-3.93,11.13,0.52,15.41C110.45,230.76,117.89,231.41,122.72,226.61z"/>
</g>
<text transform="matrix(1.0289 0 0 1 171.2148 265.7709)" class="st0 st1 st2">CEAMS</text>
<text transform="matrix(1.1365 0 0 1 197.8809 316.2793)" class="st0 st3 st4">POWERFUL MARKETING</text>
</svg>
