<?xml version="1.0" encoding="UTF-8" standalone="no"?>
<!-- Created with Inkscape (http://www.inkscape.org/) -->

<svg
   width="6.3513241mm"
   height="5.4917517mm"
   viewBox="0 0 6.3513241 5.4917517"
   version="1.1"
   id="svg1"
   xml:space="preserve"
   inkscape:export-filename="icon-1.svg"
   inkscape:export-xdpi="96"
   inkscape:export-ydpi="96"
   xmlns:inkscape="http://www.inkscape.org/namespaces/inkscape"
   xmlns:sodipodi="http://sodipodi.sourceforge.net/DTD/sodipodi-0.dtd"
   xmlns="http://www.w3.org/2000/svg"
   xmlns:svg="http://www.w3.org/2000/svg"><sodipodi:namedview
     id="namedview1"
     pagecolor="#ffffff"
     bordercolor="#000000"
     borderopacity="0.25"
     inkscape:showpageshadow="2"
     inkscape:pageopacity="0.0"
     inkscape:pagecheckerboard="0"
     inkscape:deskcolor="#d1d1d1"
     inkscape:document-units="mm" /><defs
     id="defs1"><clipPath
       id="clip0_15_21"><rect
         width="24"
         height="20.756201"
         fill="#ffffff"
         transform="translate(0,2)"
         id="rect6"
         x="0"
         y="0" /></clipPath></defs><g
     inkscape:label="Capa 1"
     inkscape:groupmode="layer"
     id="layer1"
     transform="translate(-107.02024,-148.23469)"><g
       style="fill:none"
       id="g130"
       transform="matrix(0.26458333,0,0,0.26458333,107.02023,147.70552)"><g
         clip-path="url(#clip0_15_21)"
         id="g6"><path
           d="M 21.7594,22.7562 H 2.23594 C 1.00313,22.7562 0,21.7531 0,20.5203 V 4.23594 C 0,3.00312 1.00313,2 2.23594,2 H 21.7594 C 22.9969,2 24,3.00312 24,4.23594 c 0,0.35625 -0.2906,0.64687 -0.6469,0.65156 -0.3562,0 -0.6469,-0.29063 -0.6515,-0.64688 0,-0.52031 -0.4219,-0.9375 -0.9422,-0.94218 H 2.23594 c -0.52031,0 -0.9375,0.42187 -0.94219,0.94218 V 20.5203 c 0,0.5203 0.42188,0.9422 0.94219,0.9422 H 21.7594 c 0.5203,0 0.9422,-0.4219 0.9422,-0.9422 v -8.7047 c 0,-0.3562 0.2906,-0.6469 0.6468,-0.6515 0.3563,0 0.6469,0.2906 0.6516,0.6468 v 8.7047 c 0,1.2375 -1.0031,2.2406 -2.2406,2.2406 z"
           fill="#36496d"
           id="path1" /><path
           d="M 0.646973,4.23591 V 7.51248 H 23.3485 V 4.23591 c 0,-0.87656 -0.7125,-1.58906 -1.589,-1.58906 H 2.23604 c -0.87657,0 -1.589067,0.7125 -1.589067,1.58906 z"
           fill="#c6b0dc"
           id="path2" /><path
           d="M 23.3531,8.16406 H 0.646875 C 0.290625,8.16406 0,7.87344 0,7.51719 V 4.23594 C 0,3.00312 1.00313,2 2.23594,2 H 21.7594 C 22.9969,2 24,3.00312 24,4.23594 V 7.5125 c 0,0.36094 -0.2906,0.65156 -0.6469,0.65156 z M 1.29844,6.86562 H 22.7016 v -2.625 c 0,-0.52031 -0.4219,-0.94218 -0.9422,-0.94218 H 2.24062 c -0.52031,0 -0.93749,0.42187 -0.94218,0.9375 z"
           fill="#36496d"
           id="path3" /><path
           d="m 13.814,5.73125 h -1.2328 c -0.3562,0 -0.6469,-0.29062 -0.6469,-0.64687 0,-0.35625 0.2907,-0.64688 0.6469,-0.64688 h 1.2328 c 0.3563,0 0.6469,0.29063 0.6469,0.64688 0.0047,0.35625 -0.2859,0.64687 -0.6469,0.64687 z m 3.4406,0 h -1.2328 c -0.3562,0 -0.6468,-0.29062 -0.6468,-0.64687 0,-0.35625 0.2906,-0.64688 0.6468,-0.64688 h 1.2328 c 0.3563,0 0.6469,0.29063 0.6469,0.64688 0,0.35625 -0.2906,0.64687 -0.6469,0.64687 z m 3.436,0 h -1.2328 c -0.3563,0 -0.6469,-0.29062 -0.6469,-0.64687 0,-0.35625 0.2906,-0.64688 0.6469,-0.64688 h 1.2328 c 0.3562,0 0.6469,0.29063 0.6469,0.64688 0.0046,0.35625 -0.286,0.64687 -0.6469,0.64687 z"
           fill="#36496d"
           id="path4" /><path
           d="m 5.2876,14.5859 h 13.425 v 2.9813 H 5.2876 Z"
           fill="#36496d"
           id="path5" /><path
           d="M 18.7125,18.2141 H 5.2875 c -0.35625,0 -0.64688,-0.2907 -0.64688,-0.6469 v -2.986 c 0,-0.3562 0.29063,-0.6468 0.64688,-0.6468 h 13.425 c 0.3563,0 0.6469,0.2906 0.6469,0.6468 v 2.986 c 0.0047,0.3562 -0.286,0.6469 -0.6469,0.6469 z M 5.93437,16.9203 H 18.0656 V 15.2328 H 5.93437 Z M 16.7578,12.4437 H 7.24219 C 6.88594,12.4531 6.58594,12.1719 6.57656,11.8109 6.56719,11.45 6.84844,11.1547 7.20938,11.1453 h 9.55312 c 0.3563,-0.0094 0.6562,0.2719 0.6656,0.6328 0.0094,0.361 -0.2719,0.6563 -0.6328,0.6656 z"
           fill="#36496d"
           id="path6" /></g></g><path
       style="fill:#408ea0;fill-opacity:1;stroke:#0c400f;stroke-width:0.00321839;stroke-opacity:1"
       d="m 107.35237,149.16585 c 0.002,-0.3794 0.003,-0.39543 0.0199,-0.43359 0.0263,-0.0595 0.0682,-0.10393 0.12398,-0.1315 l 0.0501,-0.0247 h 2.64907 c 2.9582,-1e-5 2.68964,-0.006 2.7644,0.0626 0.021,0.0194 0.0484,0.0554 0.0608,0.0799 l 0.0225,0.0446 0.002,0.39832 0.002,0.39831 h -2.84899 -2.849 z m 3.40876,0.0661 c 0.0636,-0.0357 0.0959,-0.0919 0.0956,-0.16595 -2.8e-4,-0.0823 -0.0547,-0.15614 -0.12945,-0.17582 -0.0467,-0.0123 -0.38062,-0.0123 -0.42301,-6e-5 -0.0409,0.0119 -0.10164,0.0701 -0.11402,0.1093 -0.0136,0.0432 -0.0113,0.11082 0.005,0.14693 0.019,0.042 0.0736,0.089 0.11512,0.0992 0.0188,0.004 0.1204,0.007 0.22575,0.006 0.17845,-0.001 0.19383,-0.003 0.22486,-0.0203 z m 0.91198,0.002 c 0.068,-0.0379 0.0999,-0.0913 0.0999,-0.16667 0,-0.0545 -0.0143,-0.0906 -0.0528,-0.13292 -0.0421,-0.0463 -0.0834,-0.0542 -0.28398,-0.054 -0.22947,2.7e-4 -0.24925,0.005 -0.30799,0.0814 -0.0214,0.0276 -0.0257,0.0416 -0.0284,0.0916 -0.003,0.0472 2.6e-4,0.0661 0.0141,0.0944 0.0222,0.0454 0.0702,0.0868 0.11317,0.0973 0.0185,0.004 0.11987,0.007 0.22524,0.006 0.1692,-0.001 0.19495,-0.003 0.2207,-0.0179 z m 0.88099,0.0115 c 0.13431,-0.0301 0.18093,-0.20516 0.0829,-0.3111 -0.0431,-0.0465 -0.0839,-0.0542 -0.28864,-0.0541 -0.10094,2e-5 -0.19359,0.004 -0.21147,0.009 -0.0384,0.0112 -0.0907,0.0585 -0.10891,0.0989 -0.0187,0.0413 -0.0172,0.11964 0.003,0.16123 0.0215,0.044 0.0702,0.0853 0.11231,0.0952 0.0473,0.0112 0.36177,0.0117 0.41079,5.5e-4 z"
       id="path130" /><path
       style="fill:#1a1a1a;fill-opacity:1;stroke:#0c400f;stroke-width:0.011811;stroke-opacity:1"
       d="m 406.3125,580.96326 c -0.70243,-0.15855 -1.27463,-0.59913 -1.57574,-1.21326 -0.24368,-0.49703 -0.22475,0.31622 -0.2146,-9.21875 l 0.009,-8.53125 0.0978,-0.25336 c 0.29721,-0.77029 0.90869,-1.28759 1.69912,-1.4374 0.20011,-0.0379 1.7013,-0.0432 10.26563,-0.0362 9.4518,0.008 10.04208,0.0114 10.21875,0.063 0.38499,0.11242 0.69876,0.29897 0.98437,0.58526 0.39781,0.39873 0.58139,0.76136 0.65403,1.29194 0.0462,0.33701 0.0452,3.46356 -10e-4,3.67953 -0.04,0.18652 -0.19895,0.38481 -0.37163,0.46361 -0.0994,0.0454 -1.1202,0.0506 -11.21123,0.058 l -11.10187,0.008 0.008,6.30443 0.008,6.30443 0.0672,0.14529 c 0.0858,0.18571 0.28934,0.3892 0.47505,0.47505 l 0.14529,0.0672 H 416.48437 426.5 l 0.15384,-0.0757 c 0.19584,-0.0964 0.36156,-0.2621 0.45794,-0.45794 l 0.0757,-0.15384 0.0156,-4.58326 0.0156,-4.58325 0.0951,-0.1355 c 0.24275,-0.34572 0.69603,-0.38068 0.97743,-0.0754 0.0923,0.10018 0.13355,0.1788 0.15968,0.30466 0.0254,0.12256 0.0324,1.41343 0.0253,4.65244 -0.0111,5.02161 0.007,4.6292 -0.24144,5.13906 -0.2583,0.52945 -0.69541,0.91441 -1.28765,1.13404 l -0.22842,0.0847 -10.17188,0.004 c -5.59453,0.002 -10.2,-0.002 -10.23437,-0.01 z m 20.88399,-17.26795 -0.009,-1.44531 -0.0872,-0.17755 c -0.0945,-0.1925 -0.23018,-0.32887 -0.43712,-0.43945 l -0.13194,-0.0705 -9.9905,-0.008 -9.99051,-0.008 -0.17265,0.0646 c -0.20869,0.0781 -0.41268,0.26778 -0.51902,0.48266 l -0.0773,0.15625 -0.009,1.44531 -0.009,1.44531 h 10.72138 10.72139 z"
       id="path131"
       transform="scale(0.26458333)" /><path
       style="fill:#1a1a1a;fill-opacity:1;stroke:#0c400f;stroke-width:0.00333483;stroke-opacity:1"
       d="m 110.31336,149.2449 c -0.0433,-0.0138 -0.0838,-0.0467 -0.1053,-0.0856 -0.0417,-0.0752 -0.0228,-0.18447 0.0408,-0.23519 0.0492,-0.0393 0.0821,-0.0438 0.29464,-0.0407 l 0.19803,0.003 0.0415,0.0272 c 0.0587,0.0384 0.0839,0.0905 0.0797,0.16452 -0.005,0.0852 -0.0548,0.14815 -0.13288,0.16731 -0.0408,0.01 -0.38464,0.01 -0.41644,-5.8e-4 z"
       id="path132" /><path
       style="fill:#1a1a1a;fill-opacity:1;stroke:#0c400f;stroke-width:0.00331613;stroke-opacity:1"
       d="m 111.2253,149.24507 c -0.11177,-0.0284 -0.16573,-0.17093 -0.10414,-0.27502 0.0154,-0.0261 0.0389,-0.0502 0.0614,-0.0631 0.0352,-0.0202 0.0435,-0.0209 0.249,-0.0209 h 0.21255 l 0.041,0.0272 c 0.058,0.0385 0.0829,0.0906 0.0787,0.16469 -0.005,0.0853 -0.0542,0.1483 -0.13126,0.16748 -0.0392,0.01 -0.3687,0.009 -0.40737,-5.8e-4 z"
       id="path133" /><path
       style="fill:#1a1a1a;fill-opacity:1;stroke:#0c400f;stroke-width:0.00341228;stroke-opacity:1"
       d="m 112.14073,149.25384 c -0.11937,-0.0317 -0.17384,-0.17358 -0.10842,-0.28252 0.0203,-0.0338 0.0378,-0.0497 0.0745,-0.0673 0.0476,-0.023 0.0499,-0.0232 0.25755,-0.0203 l 0.20955,0.003 0.0425,0.0278 c 0.11239,0.0735 0.11239,0.24188 0,0.31543 l -0.0425,0.0278 -0.2028,0.002 c -0.11154,8.9e-4 -0.21522,-0.001 -0.23041,-0.005 z"
       id="path134" /><path
       style="fill:#1a1a1a;fill-opacity:1;stroke:#0c400f;stroke-width:0.011811;stroke-opacity:1"
       d="m 411.40755,570.60078 c -0.068,-0.0385 -0.16647,-0.13092 -0.21875,-0.2053 -0.20145,-0.28662 -0.0874,-0.73317 0.23018,-0.90087 l 0.13772,-0.0727 h 4.92767 4.92767 l 0.13773,0.0727 c 0.36935,0.19499 0.4539,0.67604 0.17314,0.98501 -0.0367,0.0403 -0.11883,0.10011 -0.1826,0.13282 -0.11254,0.0577 -0.26119,0.0594 -5.0625,0.0589 l -4.94656,-5.1e-4 z"
       id="path135"
       transform="scale(0.26458333)" /><path
       style="fill:#1a1a1a;fill-opacity:1;stroke:#0c400f;stroke-width:0.011811;stroke-opacity:1"
       d="m 409.53125,576.39403 c -0.0688,-0.0319 -0.16293,-0.0985 -0.20928,-0.1479 -0.18316,-0.19533 -0.18141,-0.17668 -0.18066,-1.92481 6.4e-4,-1.48252 0.005,-1.61195 0.0576,-1.72784 0.0716,-0.15755 0.24818,-0.31457 0.4018,-0.35723 0.0807,-0.0224 2.26644,-0.0326 6.91491,-0.0323 6.54932,5e-4 6.80143,0.003 6.92188,0.0584 0.0688,0.0318 0.16293,0.0983 0.20928,0.14775 0.18323,0.19541 0.18134,0.17516 0.18134,1.94334 v 1.62108 l -0.0727,0.13773 c -0.04,0.0758 -0.13261,0.17992 -0.20581,0.23148 l -0.1331,0.0937 -6.88013,0.007 c -6.64582,0.007 -6.88438,0.005 -7.00512,-0.0507 z"
       id="path136"
       transform="scale(0.26458333)" /></g></svg>
