<?xml version="1.0" encoding="UTF-8" standalone="no"?>
<!-- Created with Inkscape (http://www.inkscape.org/) -->

<svg
   width="6.349596mm"
   height="6.3495803mm"
   viewBox="0 0 6.349596 6.3495803"
   version="1.1"
   id="svg1"
   xml:space="preserve"
   inkscape:export-filename="icon-1.svg"
   inkscape:export-xdpi="96"
   inkscape:export-ydpi="96"
   xmlns:inkscape="http://www.inkscape.org/namespaces/inkscape"
   xmlns:sodipodi="http://sodipodi.sourceforge.net/DTD/sodipodi-0.dtd"
   xmlns="http://www.w3.org/2000/svg"
   xmlns:svg="http://www.w3.org/2000/svg"><sodipodi:namedview
     id="namedview1"
     pagecolor="#ffffff"
     bordercolor="#000000"
     borderopacity="0.25"
     inkscape:showpageshadow="2"
     inkscape:pageopacity="0.0"
     inkscape:pagecheckerboard="0"
     inkscape:deskcolor="#d1d1d1"
     inkscape:document-units="mm" /><defs
     id="defs1" /><g
     inkscape:label="Capa 1"
     inkscape:groupmode="layer"
     id="layer1"
     transform="translate(-82.23118,-71.005865)"><g
       style="fill:none"
       id="g148"
       transform="matrix(0.26458333,0,0,0.26458333,82.23118,71.005447)"
       inkscape:export-filename="icon-4.svg"
       inkscape:export-xdpi="96"
       inkscape:export-ydpi="96"><g
         clip-path="url(#clipPath5)"
         id="g3"><path
           d="m 13.9387,20.1555 c -5.56511,0 -10.08006,-4.5103 -10.08006,-10.0801 0,-3.75542 2.08635,-7.19672 5.41512,-8.93612 C 14.2013,-1.42528 20.2962,0.492278 22.8655,5.4198 23.053,5.79488 22.903,6.24965 22.5326,6.43719 22.1669,6.62004 21.7215,6.47938 21.5246,6.11838 19.3398,1.93162 14.1591,0.300053 9.97234,2.48017 5.78089,4.66966 4.1587,9.83629 6.3435,14.0277 c 2.1848,4.1915 7.3561,5.8137 11.5476,3.6289 2.8927,-1.5097 4.679,-4.5384 4.5946,-7.80156 -0.0094,-0.41726 0.3235,-0.76421 0.7408,-0.7689 0.4173,-0.00937 0.7595,0.31882 0.7689,0.73609 0.136,5.56987 -4.2712,10.19727 -9.841,10.33327 -0.0656,-0.0047 -0.1406,0 -0.2157,0 z"
           fill="#36496d"
           id="path1-3" /><path
           d="m 13.9293,15.2842 c 2.8767,0 5.2088,-2.332 5.2088,-5.2088 0,-2.87675 -2.3321,-5.20882 -5.2088,-5.20882 -2.8768,0 -5.20884,2.33207 -5.20884,5.20882 0,2.8768 2.33204,5.2088 5.20884,5.2088 z"
           fill="#e3a6b6"
           id="path2-3" /><path
           d="m 13.9293,16.0391 c -3.296,0 -5.96368,-2.6724 -5.96368,-5.9637 0,-3.29125 2.67238,-5.96364 5.96368,-5.96364 3.2912,0 5.9636,2.67239 5.9636,5.96364 -0.0046,3.2913 -2.6724,5.959 -5.9636,5.9637 z m 0,-10.41767 c -2.4614,0 -4.45401,1.99257 -4.45401,4.45397 0,2.4614 1.99261,4.454 4.45401,4.454 2.4614,0 4.454,-1.9926 4.454,-4.454 C 18.3786,7.614 16.386,5.62143 13.9293,5.62143 Z M 2.64895,24 C 1.18617,24 0,22.8138 0,21.3511 0,20.5259 0.38445,19.7476 1.04083,19.246 l 3.09904,-2.3677 c 0.30006,-0.2297 0.72671,-0.2016 0.99394,0.0656 l 1.92694,1.927 c 0.26724,0.2672 0.29537,0.6939 0.06564,0.9939 L 4.75874,22.9639 C 4.29459,23.5687 3.59133,23.9484 2.82711,24 Z m 1.88006,-5.5183 -2.57394,1.9645 c -0.50166,0.3798 -0.60481,1.0924 -0.22504,1.5941 0.37976,0.5016 1.0924,0.6048 1.59406,0.225 0.08439,-0.0656 0.1594,-0.1407 0.22504,-0.225 l 1.96913,-2.574 z"
           fill="#36496d"
           id="path3-2" /></g></g><path
       style="fill:#00465c;fill-opacity:1;stroke:#5c8475;stroke-width:0.00451893;stroke-opacity:1"
       d="m 85.687836,74.853059 c -0.555882,-0.11851 -0.954161,-0.609085 -0.954161,-1.175279 0,-0.314876 0.119528,-0.607961 0.339921,-0.833501 0.164533,-0.168375 0.337562,-0.271727 0.554605,-0.33127 0.08832,-0.02422 0.127496,-0.02771 0.304138,-0.02699 0.236326,0.0011 0.317335,0.01811 0.503172,0.106587 0.252219,0.120068 0.451062,0.31952 0.569632,0.571379 0.09195,0.195325 0.107967,0.271529 0.107967,0.51379 0,0.23802 -0.01603,0.317253 -0.101001,0.499488 -0.140851,0.302051 -0.391496,0.530377 -0.696792,0.634751 -0.194668,0.06656 -0.434297,0.08223 -0.62748,0.04104 z"
       id="path149" /><path
       style="fill:#1a1a1a;fill-opacity:1;stroke:#5c8475;stroke-width:0.0167033;stroke-opacity:1"
       d="m 324.09797,288.4767 c -1.34787,-0.0929 -2.55207,-0.41593 -3.7786,-1.01368 -2.96657,-1.44578 -5.01155,-4.23058 -5.53476,-7.53712 -0.10931,-0.69082 -0.10824,-2.33503 0.002,-2.99092 0.45272,-2.69483 1.8491,-5.00303 3.97336,-6.56789 1.41272,-1.0407 3.07795,-1.70232 4.80076,-1.90742 0.54074,-0.0644 1.77499,-0.0652 2.30506,-0.002 2.18459,0.2624 4.22205,1.22256 5.80117,2.73383 0.72898,0.69765 1.29781,1.42778 1.81198,2.32577 0.25545,0.44614 0.28925,0.61334 0.17582,0.86977 -0.16208,0.36641 -0.50333,0.54319 -0.84876,0.4397 -0.24621,-0.0738 -0.3735,-0.19366 -0.55785,-0.52541 -1.36363,-2.45399 -3.78956,-4.06635 -6.60333,-4.38881 -0.71957,-0.0825 -1.92223,-0.0303 -2.60746,0.1131 -3.14025,0.65717 -5.59924,2.89222 -6.51847,5.92485 -0.2691,0.88778 -0.3494,1.46118 -0.34931,2.49445 6e-5,0.75299 0.0169,0.99547 0.0995,1.43592 0.24098,1.28383 0.64566,2.29408 1.33208,3.32549 0.92865,1.39537 2.18977,2.44412 3.73779,3.10835 4.16147,1.78563 9.01943,0.0211 11.03693,-4.00877 0.59315,-1.18479 0.91169,-2.46309 0.91367,-3.66657 9.2e-4,-0.55777 0.0447,-0.73118 0.23557,-0.93384 0.25256,-0.26811 0.64724,-0.30171 0.93809,-0.0799 0.25965,0.19805 0.29343,0.31275 0.28987,0.98439 -0.008,1.50208 -0.34383,2.87862 -1.04881,4.29851 -1.02806,2.07061 -2.71151,3.69794 -4.85542,4.69356 -1.40492,0.65243 -3.19321,0.98147 -4.75088,0.87414 z"
       id="path150"
       transform="scale(0.26458333)" /><path
       style="fill:#1a1a1a;fill-opacity:1;stroke:#5c8475;stroke-width:0.0167033;stroke-opacity:1"
       d="m 313.15992,292.32384 c -0.92163,-0.10646 -1.74913,-0.71632 -2.1175,-1.56058 -0.15481,-0.3548 -0.20961,-0.63602 -0.20872,-1.07098 10e-4,-0.70266 0.28032,-1.35686 0.785,-1.84148 0.11847,-0.11375 0.94738,-0.76438 1.84203,-1.44583 1.14148,-0.86945 1.67203,-1.24751 1.77882,-1.26755 0.37208,-0.0698 0.40322,-0.0477 1.58069,1.12267 0.60339,0.59973 1.12544,1.14413 1.1601,1.20977 0.0919,0.17397 0.0787,0.47315 -0.0286,0.64919 -0.15172,0.24887 -2.4818,3.28445 -2.65262,3.45578 -0.3679,0.369 -0.87898,0.63321 -1.40997,0.72891 -0.3606,0.065 -0.34443,0.0645 -0.7292,0.0201 z m 0.75228,-1.54258 c 0.0978,-0.0444 0.23851,-0.1415 0.31277,-0.21576 0.12418,-0.12418 1.94672,-2.47974 2.06433,-2.66807 0.0453,-0.0725 -0.007,-0.14117 -0.43333,-0.5688 -0.26666,-0.26749 -0.50507,-0.48594 -0.52979,-0.48544 -0.0247,5e-4 -0.66098,0.47283 -1.41391,1.04961 -1.28701,0.98592 -1.37663,1.06375 -1.49708,1.29995 -0.30208,0.5924 -0.0686,1.29161 0.52343,1.56729 0.28014,0.13045 0.71239,0.13987 0.97358,0.0212 z"
       id="path151"
       transform="scale(0.26458333)" /><path
       style="fill:#1a1a1a;fill-opacity:1;stroke:#00465c;stroke-width:0.0167033;stroke-opacity:1"
       d="m 323.72232,284.29639 c -1.16059,-0.20708 -2.22639,-0.7461 -3.08,-1.55769 -0.8463,-0.80463 -1.37605,-1.71039 -1.68368,-2.87878 -0.12544,-0.47639 -0.13416,-0.56165 -0.13789,-1.34824 -0.004,-0.92926 0.032,-1.19293 0.26276,-1.90409 0.27971,-0.86192 0.72024,-1.59015 1.3739,-2.27117 0.91801,-0.95644 2.07766,-1.56049 3.39635,-1.76914 0.43965,-0.0696 1.39134,-0.0585 1.8573,0.0215 2.16259,0.37151 3.96059,1.91936 4.65211,4.0049 0.20783,0.62677 0.28842,1.15566 0.28555,1.87381 -0.005,1.22165 -0.33375,2.28189 -1.03125,3.32464 -0.29216,0.43678 -1.11124,1.25787 -1.54237,1.54617 -0.71289,0.4767 -1.5977,0.83294 -2.38614,0.96072 -0.51898,0.0841 -1.48782,0.0828 -1.96664,-0.003 z m 2.11763,-1.51845 c 1.56264,-0.42421 2.71552,-1.54973 3.19297,-3.11721 0.11337,-0.37221 0.12115,-0.45024 0.12115,-1.21534 0,-0.76666 -0.008,-0.84237 -0.1218,-1.21534 -0.48579,-1.58642 -1.63061,-2.70278 -3.20297,-3.12333 -0.51562,-0.1379 -1.44973,-0.15963 -1.99708,-0.0464 -1.81666,0.37568 -3.19473,1.79459 -3.51245,3.61654 -0.33652,1.92973 0.63634,3.88218 2.36399,4.74435 0.44995,0.22454 0.66023,0.29934 1.12695,0.40086 0.53905,0.11725 1.51286,0.0961 2.02924,-0.0441 z"
       id="path152"
       transform="scale(0.26458333)" /></g></svg>
