<?xml version="1.0" encoding="UTF-8" standalone="no"?>
<!-- Created with Inkscape (http://www.inkscape.org/) -->

<svg
   width="6.3406496mm"
   height="4.9003391mm"
   viewBox="0 0 6.3406496 4.9003391"
   version="1.1"
   id="svg1"
   xml:space="preserve"
   xmlns:inkscape="http://www.inkscape.org/namespaces/inkscape"
   xmlns:sodipodi="http://sodipodi.sourceforge.net/DTD/sodipodi-0.dtd"
   xmlns="http://www.w3.org/2000/svg"
   xmlns:svg="http://www.w3.org/2000/svg"><sodipodi:namedview
     id="namedview1"
     pagecolor="#ffffff"
     bordercolor="#000000"
     borderopacity="0.25"
     inkscape:showpageshadow="2"
     inkscape:pageopacity="0.0"
     inkscape:pagecheckerboard="0"
     inkscape:deskcolor="#d1d1d1"
     inkscape:document-units="mm" /><defs
     id="defs1"><clipPath
       id="clip0_15_55-4"><rect
         width="24"
         height="18.548401"
         fill="#ffffff"
         transform="translate(0,3)"
         id="rect3-8"
         x="0"
         y="0" /></clipPath></defs><g
     inkscape:label="Capa 1"
     inkscape:groupmode="layer"
     id="layer1"
     transform="translate(-106.52848,-94.951284)"><g
       style="fill:none"
       id="g1"
       transform="matrix(0.26458333,0,0,0.26458333,106.52689,94.154705)"
       inkscape:export-filename="icon-5.svg"
       inkscape:export-xdpi="96"
       inkscape:export-ydpi="96"><g
         clip-path="url(#clip0_15_55-4)"
         id="g3"><path
           d="M 22.6688,21.5484 H 2.49844 C 1.12031,21.5484 0,20.4328 0,19.05 V 5.49844 C 0,4.12031 1.12031,3 2.49844,3 H 21.5016 C 22.8797,3 24,4.12031 24,5.49844 V 15.9422 c 0,0.3703 -0.3,0.6656 -0.6656,0.6656 -0.3657,0 -0.6656,-0.3 -0.6656,-0.6656 V 5.49844 c 0,-0.64219 -0.5204,-1.1625 -1.1626,-1.1625 H 2.49844 c -0.64219,0 -1.1625,0.52031 -1.1625,1.1625 V 19.0547 c 0,0.6422 0.52031,1.1625 1.1625,1.1625 H 22.6688 c 0.3703,0.0094 0.6609,0.3141 0.6468,0.6844 -0.0094,0.3515 -0.2953,0.6375 -0.6468,0.6468 z"
           fill="#36496d"
           id="path1" /><path
           d="M 23.3343,5.49846 11.9999,14.0813 0.665527,5.49846 c 0,-1.0125 0.820313,-1.83281 1.832813,-1.83281 H 21.5015 c 1.0125,0 1.8328,0.82031 1.8328,1.83281 z"
           fill="#e3a6b6"
           id="path2" /><path
           d="m 12,14.7469 c -0.1453,0 -0.2859,-0.0469 -0.4031,-0.136 L 0.2625,6.02812 C 0.0984375,5.90156 0,5.70469 0,5.49844 0,4.12031 1.12031,3 2.49844,3 H 21.5016 C 22.8797,3 24,4.12031 24,5.49844 24,5.70469 23.9016,5.90156 23.7375,6.02812 L 12.4031,14.6109 C 12.2859,14.7 12.1453,14.7469 12,14.7469 Z M 1.37344,5.19375 12,13.2469 22.6266,5.19375 c -0.136,-0.51094 -0.6,-0.8625 -1.125,-0.8625 H 2.49844 C 1.96875,4.33594 1.50937,4.6875 1.37344,5.19375 Z M 22.6641,21.5391 c -0.1453,0 -0.286,-0.0469 -0.4032,-0.136 l -4.6687,-3.5343 c -0.2953,-0.2204 -0.3516,-0.6422 -0.1266,-0.9329 0.2203,-0.2953 0.6422,-0.3515 0.9328,-0.1265 l 4.6688,3.5344 c 0.2953,0.2203 0.3515,0.6421 0.1312,0.9328 -0.1265,0.1687 -0.3234,0.2672 -0.5343,0.2625 z M 1.61719,21.3234 c -0.37032,0 -0.665628,-0.3 -0.665628,-0.6656 0,-0.2109 0.098438,-0.4078 0.262498,-0.5344 l 4.38282,-3.3187 c 0.29531,-0.2203 0.7125,-0.1641 0.93281,0.1266 0.22031,0.2953 0.16406,0.7125 -0.12656,0.9328 L 2.02031,21.1875 C 1.90312,21.2766 1.7625,21.3234 1.61719,21.3234 Z"
           fill="#36496d"
           id="path3" /></g></g><path
       style="fill:#0c400f;fill-opacity:1;stroke:#0c400f;stroke-width:0.00450757;stroke-opacity:1"
       d="m 108.2787,96.611541 c -0.83632,-0.643624 -1.41586,-1.097442 -1.41604,-1.108877 -2.7e-4,-0.02392 0.0521,-0.105363 0.0865,-0.134333 0.014,-0.0118 0.0468,-0.03344 0.0728,-0.04809 l 0.0473,-0.02663 2.5964,-0.0031 c 2.25894,-0.0027 2.60418,-8.16e-4 2.65638,0.01458 0.0721,0.0213 0.15179,0.08752 0.18504,0.153757 0.0236,0.04697 0.0237,0.04904 0.003,0.06973 -0.0119,0.01172 -0.56481,0.439196 -1.22852,0.949927 -0.66372,0.510729 -1.29228,0.994749 -1.39678,1.0756 l -0.19003,0.147005 z"
       id="path129" /><path
       style="fill:#1a1a1a;fill-opacity:1;stroke:#0c400f;stroke-width:0.0167033;stroke-opacity:1"
       d="m 404.64185,377.3311 c -0.55951,-0.12321 -0.88766,-0.30369 -1.28163,-0.70487 -0.27814,-0.28324 -0.4887,-0.63404 -0.62548,-1.04204 -0.0776,-0.23156 -0.082,-0.57846 -0.0935,-7.32363 -0.0133,-7.7947 -0.0261,-7.39935 0.25932,-8.00026 0.10194,-0.21466 0.23637,-0.39231 0.47755,-0.63111 0.38748,-0.38365 0.65594,-0.54047 1.13495,-0.66298 0.33554,-0.0858 0.52134,-0.0874 10.11271,-0.0868 10.77216,7.2e-4 10.02645,-0.0187 10.63034,0.27654 0.38886,0.1901 0.86704,0.666 1.05708,1.05202 0.28485,0.57861 0.27,0.23401 0.27039,6.27219 3.5e-4,5.37627 -0.002,5.5054 -0.0858,5.6434 -0.11105,0.18212 -0.26445,0.28074 -0.4821,0.30993 -0.21647,0.029 -0.48337,-0.10811 -0.60658,-0.31169 -0.0813,-0.1343 -0.0852,-0.31203 -0.10651,-4.79476 l -0.0221,-4.65529 -5.14862,3.89941 c -2.83174,2.14468 -5.21728,3.92828 -5.3012,3.96356 -0.18842,0.0792 -0.39937,0.0491 -0.58572,-0.0836 -0.0775,-0.0552 -2.41901,-1.82539 -5.20345,-3.93386 l -5.0626,-3.83357 -0.0112,6.25385 -0.0112,6.25384 0.0934,0.21708 c 0.0514,0.11939 0.11607,0.23591 0.14381,0.25893 0.0345,0.0287 0.69086,-0.44422 2.08333,-1.50105 1.22724,-0.93142 2.09475,-1.56012 2.18897,-1.58636 0.16549,-0.0461 0.40178,-0.002 0.5344,0.10006 0.12997,0.0999 0.25937,0.36018 0.25954,0.52211 10e-5,0.0925 -0.042,0.22216 -0.10046,0.30936 -0.0571,0.0852 -0.79242,0.67562 -1.70072,1.36551 l -1.60009,1.21534 4.37446,0.0113 c 2.40596,0.006 6.34829,0.006 8.76074,0 l 4.38627,-0.0113 -1.62917,-1.23216 c -1.45058,-1.09708 -1.63851,-1.25327 -1.71436,-1.42475 -0.0726,-0.16412 -0.0779,-0.21983 -0.0356,-0.37686 0.0935,-0.34737 0.44388,-0.56453 0.76687,-0.47535 0.18194,0.0502 4.95906,3.65723 5.07351,3.83079 0.16309,0.2473 0.0687,0.66849 -0.19131,0.85395 l -0.14864,0.10601 -10.29724,0.008 c -8.39291,0.006 -10.34628,-0.003 -10.56241,-0.0507 z m 11.57888,-9.28295 c 8.61961,-6.63092 9.0819,-6.99304 9.0819,-7.11415 0,-0.15499 -0.26068,-0.46819 -0.51851,-0.62297 -0.21556,-0.12941 -0.25978,-0.1382 -0.83382,-0.16573 -0.3334,-0.016 -4.80183,-0.0291 -9.92984,-0.0291 h -9.32365 l -0.23509,0.13451 c -0.25283,0.14465 -0.42999,0.32847 -0.54107,0.5614 -0.0654,0.13711 -0.0644,0.15104 0.0164,0.22877 0.21087,0.20284 2.97376,2.34936 8.52714,6.62486 l 2.12132,1.63318 0.15468,-0.11543 c 0.0851,-0.0635 0.7513,-0.5744 1.48051,-1.13536 z"
       id="path130"
       transform="scale(0.26458333)" /></g></svg>
