<?xml version="1.0" encoding="UTF-8" standalone="no"?>
<!-- Created with Inkscape (http://www.inkscape.org/) -->

<svg
   width="4.0605321mm"
   height="6.3500004mm"
   viewBox="0 0 4.0605321 6.3500004"
   version="1.1"
   id="svg1"
   xml:space="preserve"
   inkscape:export-filename="icon-1.svg"
   inkscape:export-xdpi="96"
   inkscape:export-ydpi="96"
   xmlns:inkscape="http://www.inkscape.org/namespaces/inkscape"
   xmlns:sodipodi="http://sodipodi.sourceforge.net/DTD/sodipodi-0.dtd"
   xmlns="http://www.w3.org/2000/svg"
   xmlns:svg="http://www.w3.org/2000/svg"><sodipodi:namedview
     id="namedview1"
     pagecolor="#ffffff"
     bordercolor="#000000"
     borderopacity="0.25"
     inkscape:showpageshadow="2"
     inkscape:pageopacity="0.0"
     inkscape:pagecheckerboard="0"
     inkscape:deskcolor="#d1d1d1"
     inkscape:document-units="mm" /><defs
     id="defs1"><clipPath
       id="clip0_15_20"><rect
         width="15.3469"
         height="24"
         fill="#ffffff"
         transform="translate(4)"
         id="rect8"
         x="0"
         y="0" /></clipPath></defs><g
     inkscape:label="Capa 1"
     inkscape:groupmode="layer"
     id="layer1"
     transform="translate(-123.78686,-117.02947)"><g
       style="fill:none"
       id="g136"
       transform="matrix(0.26458333,0,0,0.26458333,122.72853,117.02947)"><g
         clip-path="url(#clip0_15_20)"
         id="g8"><path
           d="M 18.7048,3.38904 V 2.2031 c 0,-0.8625 -0.6985,-1.556249 -1.5563,-1.556249 H 6.20322 c -0.8625,0 -1.55625,0.698439 -1.55625,1.556249 V 3.38904 Z M 4.64697,18.675 v 3.1219 c 0,0.8625 0.69844,1.5562 1.55625,1.5562 H 17.1438 c 0.8625,0 1.5563,-0.6984 1.5563,-1.5562 V 18.675 Z"
           fill="#8caeec"
           id="path1-2" /><path
           d="M 17.1437,0 H 6.20312 C 4.98906,0 4,0.989063 4,2.20312 V 21.7969 C 4,23.0109 4.98906,24 6.20312,24 H 17.1437 c 1.2141,0 2.2032,-0.9891 2.2032,-2.2031 v -5.2828 c 0,-0.3563 -0.2906,-0.6469 -0.6469,-0.6422 -0.3562,0 -0.6422,0.2906 -0.6422,0.6422 v 1.514 H 5.28906 V 4.03594 H 18.0578 V 12 c 0,0.3562 0.286,0.6469 0.6422,0.6469 0.3563,0 0.6469,-0.286 0.6469,-0.6422 V 2.20312 C 19.3469,0.989063 18.3625,0 17.1437,0 Z m 0.9141,19.3172 v 2.4797 c 0,0.5062 -0.4078,0.914 -0.9141,0.914 H 6.20312 c -0.50625,0 -0.91406,-0.4078 -0.91406,-0.914 V 19.3172 Z M 5.28906,2.74687 V 2.20312 c 0,-0.50625 0.40781,-0.91406 0.91406,-0.91406 H 17.1437 c 0.5063,0 0.9141,0.40781 0.9141,0.91406 v 0.54375 z"
           fill="#36496d"
           id="path2-1" /><path
           d="m 11.6735,21.4547 c 0.2434,0 0.4407,-0.1973 0.4407,-0.4406 0,-0.2434 -0.1973,-0.4407 -0.4407,-0.4407 -0.2433,0 -0.4406,0.1973 -0.4406,0.4407 0,0.2433 0.1973,0.4406 0.4406,0.4406 z"
           fill="#36496d"
           id="path3-0" /><path
           d="m 11.6733,22.1016 c -0.6,0 -1.0875,-0.4875 -1.0875,-1.0875 0,-0.6 0.4875,-1.0875 1.0875,-1.0875 0.6,0 1.0875,0.4875 1.0875,1.0875 0,0.6 -0.4875,1.0875 -1.0875,1.0875 z M 10.4827,10.4719 H 7.25771 c -0.35625,0 -0.64687,-0.2906 -0.64687,-0.64688 V 7.03127 c 0,-0.35625 0.29062,-0.64687 0.64687,-0.64687 h 3.22499 c 0.3563,0 0.6469,0.29062 0.6469,0.64687 0,0.35625 -0.2906,0.64688 -0.6469,0.64688 H 7.90459 v 1.50469 h 2.57811 c 0.3563,0 0.6469,0.29062 0.6469,0.64687 -0.0047,0.35159 -0.2906,0.64219 -0.6469,0.64219 z"
           fill="#36496d"
           id="path4-4" /><path
           d="m 12.8687,7.03125 h 3.225 V 9.825 h -3.225 z"
           fill="#36496d"
           id="path5-9" /><path
           d="m 16.0938,10.4719 h -3.225 c -0.3563,0 -0.6469,-0.2906 -0.6469,-0.64688 V 7.03127 c 0,-0.35625 0.2906,-0.64687 0.6469,-0.64687 h 3.225 c 0.3562,0 0.6422,0.29062 0.6422,0.64687 v 2.79375 c 0,0.35628 -0.286,0.64688 -0.6422,0.64688 z M 13.5157,9.18284 h 1.9359 V 7.67815 H 13.511 Z"
           fill="#36496d"
           id="path6-6" /><path
           d="m 7.25781,12.45 h 3.22499 v 2.7938 H 7.25781 Z"
           fill="#36496d"
           id="path7" /><path
           d="M 10.4827,15.8906 H 7.25771 c -0.35625,0 -0.64687,-0.2906 -0.64687,-0.6468 v -2.7985 c 0,-0.3562 0.29062,-0.6468 0.64687,-0.6468 h 3.22499 c 0.3563,0 0.6422,0.2906 0.6422,0.6468 v 2.7938 c 0,0.3609 -0.2859,0.6515 -0.6422,0.6515 z M 7.90459,14.6016 H 9.83584 V 13.0969 H 7.8999 Z m 8.18911,1.289 h -3.225 c -0.3563,0 -0.6469,-0.2906 -0.6422,-0.6468 0,-0.3563 0.2906,-0.6422 0.6422,-0.6422 h 2.5781 v -1.5047 h -2.5781 c -0.3563,0 -0.6469,-0.2906 -0.6469,-0.6469 0,-0.3562 0.2906,-0.6469 0.6469,-0.6469 h 3.225 c 0.3562,0 0.6468,0.2907 0.6468,0.6469 v 2.7938 c 0,0.3562 -0.2906,0.6468 -0.6468,0.6468 z"
           fill="#36496d"
           id="path8" /></g></g><path
       style="fill:#1a1a1a;fill-opacity:1;stroke:#0c400f;stroke-width:0.0167033;stroke-opacity:1"
       d="m 469.78407,466.26871 c -0.85227,-0.11681 -1.5645,-0.73018 -1.81954,-1.56697 -0.0773,-0.25357 -0.0808,-0.70668 -0.0808,-10.36354 0,-9.72583 0.003,-10.10942 0.0826,-10.39795 0.19566,-0.70971 0.80846,-1.32251 1.51817,-1.51817 0.2855,-0.0787 0.57082,-0.0826 6.06693,-0.0826 5.47069,0 5.78098,0.004 6.0325,0.0812 0.73097,0.22376 1.28606,0.77885 1.50982,1.50982 0.0768,0.25084 0.0812,0.5437 0.0812,5.42158 0,5.13901 -3.1e-4,5.15684 -0.0911,5.27848 -0.30386,0.407 -0.75128,0.40701 -1.0552,2e-5 -0.0903,-0.1209 -0.0912,-0.15964 -0.10327,-4.20676 l -0.0122,-4.08474 h -6.38495 -6.38495 v 7.00477 7.00478 h 6.38262 6.38261 l 0.0145,-0.82864 c 0.0122,-0.6958 0.0272,-0.85198 0.094,-0.97423 0.22265,-0.4078 0.81814,-0.42115 1.07821,-0.0242 0.0748,0.11419 0.0797,0.30086 0.0797,3.01836 0,2.68508 -0.006,2.91601 -0.0812,3.16181 -0.21367,0.69799 -0.75246,1.25495 -1.44353,1.49219 l -0.28726,0.0986 -5.65685,0.006 c -3.11127,0.003 -5.77618,-0.0101 -5.92202,-0.0301 z m 11.59074,-1.30392 c 0.20835,-0.087 0.35015,-0.21971 0.45647,-0.42702 0.0773,-0.15078 0.0841,-0.27427 0.0841,-1.53575 v -1.37178 h -6.38606 -6.38606 v 1.37178 c 0,1.26148 0.007,1.38497 0.0841,1.53575 0.10422,0.20323 0.24577,0.33795 0.44656,0.42502 0.13516,0.0586 0.86218,0.0672 5.84578,0.0687 5.03967,0.002 5.71017,-0.006 5.85513,-0.0667 z m 0.54056,-20.28477 c 0,-0.45421 -0.0637,-0.65206 -0.27252,-0.84687 -0.26399,-0.24625 0.0524,-0.23413 -6.11354,-0.23413 -6.16596,0 -5.84955,-0.0121 -6.11354,0.23413 -0.20885,0.19481 -0.27252,0.39266 -0.27252,0.84687 v 0.4216 h 6.38606 6.38606 z"
       id="path137"
       transform="scale(0.26458333)" /><path
       style="fill:#1a1a1a;fill-opacity:1;stroke:#0c400f;stroke-width:0.0167033;stroke-opacity:1"
       d="m 470.81822,458.0888 c -0.32906,-0.19084 -0.32705,-0.17889 -0.32705,-1.93864 0,-2.20561 -0.21694,-2.01083 2.2396,-2.01083 1.74668,0 1.80111,0.003 1.91971,0.0911 0.0671,0.0501 0.16307,0.14604 0.21319,0.21316 0.088,0.11793 0.0911,0.17522 0.0911,1.69875 0,1.5615 -9.7e-4,1.57825 -0.10014,1.73772 -0.18793,0.30221 -0.19446,0.30314 -2.13835,0.302 -1.68212,-9.8e-4 -1.74419,-0.004 -1.89808,-0.0933 z"
       id="path138"
       transform="scale(0.26458333)" /><path
       style="fill:#1a1a1a;fill-opacity:1;stroke:#0c400f;stroke-width:0.0167033;stroke-opacity:1"
       d="m 470.79163,452.66061 c -0.29682,-0.18098 -0.30046,-0.20427 -0.30046,-1.92423 0,-1.53043 10e-4,-1.5485 0.10014,-1.70782 0.18783,-0.30205 0.19463,-0.30302 2.13904,-0.30302 1.98567,0 1.96208,-0.004 2.14902,0.35683 0.11606,0.22394 0.10265,0.42204 -0.0423,0.62567 -0.17712,0.24875 -0.21876,0.25494 -1.7141,0.25494 h -1.37221 v 0.77161 0.77162 l 1.38895,0.0128 c 1.32325,0.0122 1.39473,0.0171 1.51092,0.10395 0.21448,0.16024 0.30456,0.31881 0.30003,0.52813 -0.005,0.22619 -0.10015,0.3899 -0.29654,0.50965 -0.13385,0.0816 -0.23477,0.0861 -1.93109,0.0861 -1.69742,0 -1.79717,-0.004 -1.93135,-0.0863 z"
       id="path139"
       transform="scale(0.26458333)" /><path
       style="fill:#1a1a1a;fill-opacity:1;stroke:#0c400f;stroke-width:0.0167033;stroke-opacity:1"
       d="m 476.4113,452.66488 c -0.074,-0.0451 -0.1734,-0.1395 -0.22097,-0.20976 -0.0818,-0.12088 -0.0865,-0.21216 -0.0865,-1.69664 0,-1.5534 9.9e-4,-1.57049 0.10014,-1.72992 0.18775,-0.30193 0.19542,-0.30302 2.13167,-0.30302 1.93625,0 1.94392,10e-4 2.13167,0.30302 0.0991,0.15932 0.10014,0.17739 0.10014,1.70782 0,1.71996 -0.004,1.74325 -0.30046,1.92423 -0.13418,0.0818 -0.23393,0.0863 -1.93135,0.0863 -1.66564,0 -1.7992,-0.006 -1.92434,-0.082 z"
       id="path140"
       transform="scale(0.26458333)" /><path
       style="fill:#1a1a1a;fill-opacity:1;stroke:#0c400f;stroke-width:0.0167033;stroke-opacity:1"
       d="m 476.44414,458.10163 c -0.42925,-0.22888 -0.42351,-0.87946 0.01,-1.08497 0.12727,-0.0604 0.35159,-0.071 1.50191,-0.071 h 1.35229 v -0.77161 -0.77162 l -1.38896,-0.0128 c -1.32324,-0.0122 -1.39472,-0.0171 -1.51092,-0.10395 -0.31223,-0.23328 -0.39247,-0.57992 -0.19759,-0.85361 0.19426,-0.27282 0.17698,-0.27063 2.13405,-0.27045 1.68738,1.6e-4 1.78844,0.005 1.92224,0.0863 0.30279,0.18462 0.29936,0.16427 0.31329,1.85606 0.0125,1.51554 0.0118,1.52817 -0.0884,1.72234 -0.18642,0.36118 -0.1616,0.35709 -2.1553,0.35497 -1.57988,-0.002 -1.76026,-0.009 -1.89219,-0.0796 z"
       id="path141"
       transform="scale(0.26458333)" /><path
       style="fill:#1a1a1a;fill-opacity:1;stroke:#0e8086;stroke-width:0.00492334;stroke-opacity:1"
       d="m 125.77785,122.88786 c -0.14744,-0.028 -0.25689,-0.15627 -0.2568,-0.30096 1.4e-4,-0.27215 0.34059,-0.40793 0.54043,-0.21554 0.0627,0.0604 0.0927,0.13 0.0928,0.21554 1e-4,0.18918 -0.18508,0.33729 -0.37629,0.30096 z"
       id="path142" /><path
       style="fill:#0e8086;fill-opacity:1;stroke:#0e8086;stroke-width:0.00451596;stroke-opacity:1"
       d="m 124.30311,123.03747 c -0.0465,-0.006 -0.13216,-0.08 -0.15354,-0.13234 -0.0125,-0.0306 -0.0162,-0.1226 -0.0162,-0.40252 v -0.36289 h 1.69591 1.69592 l -0.003,0.37976 c -0.004,0.42566 8e-4,0.40271 -0.0969,0.48351 l -0.0447,0.037 -1.52008,10e-4 c -0.83604,5.5e-4 -1.53673,-10e-4 -1.5571,-0.004 z m 1.61363,-0.15542 c 0.0191,-0.004 0.0563,-0.0227 0.0824,-0.0422 0.16516,-0.12237 0.16522,-0.3716 8e-5,-0.49394 -0.17043,-0.12627 -0.42008,-0.0246 -0.45891,0.18694 -0.0298,0.16229 0.0722,0.32444 0.22344,0.35498 0.0509,0.0103 0.0762,0.009 0.15291,-0.006 z"
       id="path143" /><path
       style="fill:#0e8086;fill-opacity:1;stroke:#0e8086;stroke-width:0.00454506;stroke-opacity:1"
       d="m 124.13339,117.65613 c 0,-0.12103 0.015,-0.16576 0.0752,-0.22515 0.0326,-0.0321 0.057,-0.0441 0.10478,-0.0512 0.0813,-0.0119 2.94968,-0.0119 3.03098,0 0.0478,0.007 0.0721,0.019 0.10479,0.0512 0.0602,0.0593 0.0752,0.10415 0.0752,0.22515 v 0.10447 h -1.69543 -1.69543 z"
       id="path144" /></g></svg>
