<?xml version="1.0" encoding="UTF-8" standalone="no"?>
<!-- Created with Inkscape (http://www.inkscape.org/) -->

<svg
   width="6.3499918mm"
   height="5.3034797mm"
   viewBox="0 0 6.3499918 5.3034797"
   version="1.1"
   id="svg1"
   xml:space="preserve"
   inkscape:export-filename="icon-1.svg"
   inkscape:export-xdpi="96"
   inkscape:export-ydpi="96"
   xmlns:inkscape="http://www.inkscape.org/namespaces/inkscape"
   xmlns:sodipodi="http://sodipodi.sourceforge.net/DTD/sodipodi-0.dtd"
   xmlns="http://www.w3.org/2000/svg"
   xmlns:svg="http://www.w3.org/2000/svg"><sodipodi:namedview
     id="namedview1"
     pagecolor="#ffffff"
     bordercolor="#000000"
     borderopacity="0.25"
     inkscape:showpageshadow="2"
     inkscape:pageopacity="0.0"
     inkscape:pagecheckerboard="0"
     inkscape:deskcolor="#d1d1d1"
     inkscape:document-units="mm" /><defs
     id="defs1"><clipPath
       id="clip0_15_31"><rect
         width="24"
         height="20.039101"
         fill="#ffffff"
         transform="translate(0,2)"
         id="rect4"
         x="0"
         y="0" /></clipPath></defs><g
     inkscape:label="Capa 1"
     inkscape:groupmode="layer"
     id="layer1"
     transform="translate(-131.45868,-97.837529)"><g
       style="fill:none"
       id="g144"
       transform="matrix(0.26458333,0,0,0.26458333,131.45868,97.309828)"><g
         clip-path="url(#clip0_15_31)"
         id="g4"><path
           d="m 8.76099,18.5656 h 6.48281 v 2.7938 H 8.76099 Z"
           fill="#b0d4c1"
           id="path1-0" /><path
           d="M 21.5719,2 H 2.42812 C 1.0875,2 0,3.0875 0,4.42344 V 16.8172 c 0,1.3406 1.0875,2.4234 2.42812,2.4281 h 5.65313 v 1.4391 h -1.35 c -0.375,0 -0.67969,0.3047 -0.67969,0.6797 0,0.375 0.30469,0.6797 0.67969,0.6797 H 17.2734 c 0.375,0 0.6797,-0.3047 0.6797,-0.6797 0,-0.375 -0.3047,-0.6797 -0.6797,-0.6797 h -1.35 v -1.9641 c 0.0141,-0.0562 0.0188,-0.1125 0.0188,-0.1687 -0.0094,-0.375 -0.3235,-0.6704 -0.6938,-0.661 H 2.42812 c -0.59062,0 -1.06874,-0.4781 -1.06874,-1.0687 V 4.42344 c 0,-0.59063 0.47812,-1.06875 1.06874,-1.06875 H 21.5766 c 0.5906,0 1.0687,0.47812 1.0687,1.06875 V 16.8172 c 0,0.5906 -0.4781,1.0687 -1.0687,1.0687 h -2.1891 c -0.375,0.0094 -0.6703,0.3235 -0.6609,0.6938 0.0093,0.375 0.3234,0.6703 0.6937,0.6609 h 2.1516 c 1.3406,0 2.4234,-1.0875 2.4281,-2.4234 V 4.42344 C 24,3.0875 22.9125,2 21.5719,2 Z m -7.0078,17.2453 v 1.4391 H 9.43594 v -1.4391 z"
           fill="#36496d"
           id="path2-2" /><path
           d="m 10.3172,14.7313 c -0.59532,-0.9282 -0.32345,-2.1703 0.6047,-2.7657 0.9281,-0.5953 2.1703,-0.3234 2.7656,0.6047 0.4219,0.6563 0.4219,1.5 0,2.161 h 4.7156 v -2.3578 l -1.425,-0.2297 C 16.7484,11.3797 16.3406,10.6766 15.7922,10.0953 L 16.3078,8.75002 14.0906,7.47034 13.1813,8.58596 c -0.7782,-0.18281 -1.5891,-0.18281 -2.3672,0 L 9.90469,7.47034 7.69219,8.75002 8.20781,10.0953 c -0.54843,0.5813 -0.95156,1.2844 -1.18593,2.0485 l -1.42032,0.2297 v 2.3578 z"
           fill="#b0d4c1"
           id="path3-4" /><path
           d="m 18.3985,15.4109 h -4.7156 c -0.375,0 -0.6797,-0.3047 -0.6797,-0.6797 0,-0.1312 0.0375,-0.2578 0.1078,-0.3656 0.3937,-0.6141 0.2156,-1.4344 -0.4031,-1.8281 -0.6141,-0.3938 -1.4344,-0.2157 -1.8282,0.4031 -0.2765,0.4359 -0.2765,0.9891 0,1.425 0.2016,0.3141 0.1125,0.7359 -0.2015,0.9375 -0.1078,0.0703 -0.2391,0.1078 -0.3656,0.1078 H 5.59693 c -0.375,0 -0.67969,-0.3047 -0.675,-0.6797 v -2.3578 c 0,-0.3328 0.24375,-0.6141 0.57187,-0.6703 L 6.51568,11.539 C 6.73599,10.9672 7.04537,10.4328 7.42974,9.95935 L 7.05943,8.99372 C 6.94224,8.68435 7.06412,8.33279 7.35474,8.16404 L 9.57193,6.88435 C 9.86255,6.72029 10.2282,6.78591 10.4391,7.04372 l 0.6516,0.80157 c 0.6047,-0.09375 1.2234,-0.09375 1.8281,0 L 13.5704,7.04372 C 13.7813,6.78591 14.1469,6.7156 14.4376,6.88435 l 2.2171,1.27969 c 0.2907,0.16875 0.4125,0.52031 0.2954,0.82968 l -0.3704,0.96563 c 0.3844,0.47815 0.6891,1.00785 0.9094,1.57965 l 1.0219,0.1641 c 0.3281,0.0516 0.5719,0.3375 0.5719,0.6703 v 2.3578 c -0.0047,0.375 -0.3094,0.6797 -0.6844,0.6797 z m -3.75,-1.3594 h 3.075 V 12.95 L 16.8704,12.814 C 16.6126,12.7718 16.4016,12.589 16.3266,12.3406 16.1251,11.675 15.7688,11.0656 15.2954,10.5593 15.1172,10.3718 15.061,10.0953 15.1547,9.85154 l 0.3094,-0.80625 -1.214,-0.70313 -0.5438,0.67031 c -0.1641,0.20157 -0.4266,0.29063 -0.6797,0.23438 -0.6797,-0.15469 -1.3828,-0.15469 -2.0578,0 C 10.7157,9.3031 10.4532,9.21404 10.2891,9.01247 L 9.74537,8.34216 8.5313,9.04529 8.84068,9.85154 C 8.93443,10.0953 8.87818,10.3672 8.70005,10.5593 8.22662,11.0656 7.87037,11.675 7.6688,12.3406 7.5938,12.589 7.38287,12.7718 7.12505,12.814 L 6.27193,12.95 v 1.1015 h 3.075 C 9.32818,13.9203 9.3188,13.7843 9.3188,13.6484 c 0.01875,-1.4812 1.2328,-2.6625 2.7141,-2.6437 1.4531,0.0187 2.625,1.1906 2.6437,2.6437 0,0.1359 -0.0094,0.2719 -0.0281,0.4031 z"
           fill="#36496d"
           id="path4-9" /></g></g><path
       style="fill:#5c8475;fill-opacity:1;stroke:#5c8475;stroke-width:0.00514083;stroke-opacity:1"
       d="m 132.90931,100.91401 v -0.16611 l 0.0433,-0.008 c 0.0239,-0.002 0.0821,-0.014 0.12985,-0.0219 0.18178,-0.0311 0.20679,-0.0511 0.26743,-0.21614 0.0544,-0.14875 0.13233,-0.29634 0.20856,-0.39657 0.13889,-0.182571 0.13648,-0.17811 0.13648,-0.254839 0,-0.04928 -0.0145,-0.110821 -0.0465,-0.195841 -0.0254,-0.0681 -0.0464,-0.127833 -0.0464,-0.13269 0,-0.0091 0.31272,-0.200594 0.34101,-0.209191 0.009,-0.0023 0.0546,0.04699 0.10364,0.110021 0.12505,0.161173 0.17088,0.18169 0.33345,0.149213 0.13249,-0.02642 0.37568,-0.02625 0.50871,2.14e-4 0.15915,0.0318 0.20322,0.01234 0.32662,-0.144309 0.052,-0.06581 0.10111,-0.117549 0.10921,-0.115029 0.0219,0.0071 0.34129,0.199748 0.34129,0.206249 0,0.0031 -0.0218,0.0632 -0.0482,0.133553 -0.0298,0.07893 -0.0488,0.152828 -0.0491,0.192763 -9.2e-4,0.07008 0.007,0.0847 0.14464,0.268716 0.0851,0.11362 0.14883,0.23646 0.19858,0.38207 0.0547,0.16097 0.0918,0.19086 0.27354,0.22181 0.0478,0.01 0.10599,0.0178 0.12984,0.0219 l 0.0433,0.008 v 0.16612 0.16611 h -0.45803 -0.45807 l -7e-5,-0.11463 c -1.7e-4,-0.39419 -0.26957,-0.74218 -0.63757,-0.82356 -0.26026,-0.0574 -0.52672,0.0189 -0.7194,0.20635 -0.1722,0.16742 -0.25758,0.3645 -0.26142,0.60329 l -0.002,0.12851 -0.45605,3e-5 -0.45607,1e-5 z"
       id="path145" /><path
       style="fill:#5c8475;fill-opacity:1;stroke:#5c8475;stroke-width:0.00479836;stroke-opacity:1"
       d="m 133.30288,101.14258 v -0.19142 l 0.0328,-0.009 c 0.0181,-0.002 0.0621,-0.0161 0.0982,-0.0252 0.13743,-0.0358 0.15634,-0.0589 0.20218,-0.24907 0.0411,-0.17142 0.10005,-0.3415 0.15768,-0.457 0.105,-0.21037 0.10318,-0.20524 0.10318,-0.293655 0,-0.05681 -0.011,-0.127704 -0.0352,-0.225678 -0.0192,-0.07847 -0.0351,-0.147316 -0.0351,-0.152905 0,-0.01037 0.23643,-0.231162 0.25782,-0.241062 0.007,-0.0023 0.0413,0.05416 0.0783,0.126782 0.0945,0.185726 0.1292,0.209372 0.2521,0.171943 0.10016,-0.03043 0.28402,-0.03031 0.38459,2.42e-4 0.12032,0.03665 0.15364,0.01417 0.24694,-0.166297 0.0393,-0.07582 0.0764,-0.135447 0.0825,-0.132543 0.0165,0.0081 0.25803,0.230172 0.25803,0.237661 0,0.0035 -0.0165,0.07282 -0.0365,0.15391 -0.0226,0.09092 -0.0369,0.176114 -0.0371,0.222127 -7e-4,0.08078 0.005,0.09761 0.10935,0.309655 0.0643,0.13094 0.11252,0.27249 0.15013,0.44028 0.0413,0.1855 0.0694,0.21994 0.2068,0.25561 0.0361,0.0115 0.0801,0.0205 0.0982,0.0252 l 0.0328,0.009 v 0.19143 0.19142 h -0.34628 -0.3463 l -6e-5,-0.13209 c -1.3e-4,-0.45425 -0.2038,-0.85525 -0.48201,-0.94904 -0.19677,-0.0661 -0.39821,0.0218 -0.54388,0.23779 -0.13019,0.19293 -0.19474,0.42003 -0.19764,0.6952 l -0.002,0.1481 -0.34479,3e-5 -0.34479,1e-5 z"
       id="path145-0" /><path
       style="fill:#5c8475;fill-opacity:1;stroke:#0e8086;stroke-width:0.00474688;stroke-opacity:1"
       d="m 133.94082,102.60131 v -0.20761 h 0.69906 0.69906 v 0.20761 0.20759 h -0.69906 -0.69906 z"
       id="path146" /><path
       style="fill:#1a1a1a;fill-opacity:1;stroke:#0e8086;stroke-width:0.0167033;stroke-opacity:1"
       d="m 502.17502,383.09634 c -0.11212,-0.0555 -0.21642,-0.15372 -0.27621,-0.2601 -0.0927,-0.16488 -0.0961,-0.21759 -0.096,-1.49073 7e-5,-1.16832 0.009,-1.33746 0.0773,-1.47361 0.12165,-0.24213 0.29974,-0.33104 0.83557,-0.41718 0.26353,-0.0424 0.52198,-0.087 0.57433,-0.0992 0.0665,-0.0155 0.13583,-0.11314 0.23008,-0.32392 0.15046,-0.3365 0.42923,-0.80678 0.64837,-1.09377 l 0.14449,-0.18923 -0.19446,-0.49625 c -0.25336,-0.64653 -0.26699,-0.72953 -0.15967,-0.97214 0.0992,-0.22428 0.054,-0.19383 1.61753,-1.08908 1.33873,-0.76652 1.35398,-0.76666 1.96148,-0.0173 l 0.34817,0.42947 0.97083,0.002 0.97083,0.002 0.34544,-0.42813 c 0.38621,-0.47866 0.55191,-0.58825 0.84029,-0.55574 0.24283,0.0274 2.5472,1.35324 2.68272,1.54357 0.16782,0.23567 0.15634,0.40576 -0.067,0.99279 -0.11182,0.29391 -0.20332,0.54872 -0.20332,0.56625 0,0.0175 0.12885,0.22541 0.28633,0.46196 0.15747,0.23655 0.35878,0.58793 0.44734,0.78085 0.0886,0.19292 0.1666,0.35712 0.17342,0.36488 0.007,0.008 0.25795,0.0538 0.55808,0.10237 0.5968,0.0965 0.75954,0.16618 0.91012,0.38962 0.0979,0.14535 0.0996,0.1701 0.0996,1.50473 0,1.33445 -0.002,1.35937 -0.0994,1.50305 -0.0547,0.0804 -0.15557,0.18771 -0.22418,0.23855 -0.12265,0.0909 -0.1668,0.0927 -2.63167,0.10455 l -2.50693,0.0121 -0.1921,-0.10159 c -0.37533,-0.19848 -0.4502,-0.55424 -0.21361,-1.01509 0.12611,-0.24565 0.14232,-0.31815 0.1411,-0.63109 -0.002,-0.41183 -0.11013,-0.68833 -0.37351,-0.95171 -0.26779,-0.2678 -0.53813,-0.37422 -0.94863,-0.37345 -0.56877,10e-4 -0.96614,0.23915 -1.20252,0.72052 -0.10375,0.21126 -0.12331,0.30718 -0.12331,0.60464 0,0.3088 0.0182,0.39097 0.14363,0.64908 0.079,0.16254 0.14363,0.35871 0.14363,0.43593 0,0.21755 -0.16633,0.47094 -0.37564,0.57227 -0.17587,0.0851 -0.27284,0.0884 -2.63247,0.0884 -2.36804,-4e-5 -2.45588,-0.003 -2.63002,-0.0892 z m 4.02974,-1.64538 c 0.008,-1.09386 0.65625,-2.0347 1.69052,-2.45505 1.05125,-0.42725 2.34904,-0.0654 3.04084,0.84788 0.38508,0.50835 0.55399,1.00867 0.55399,1.64093 v 0.37616 l 1.55342,-0.0116 1.55343,-0.0116 0.0125,-0.52665 c 0.007,-0.28966 -0.004,-0.54361 -0.0252,-0.56433 -0.0207,-0.0207 -0.22523,-0.0673 -0.45446,-0.10339 -0.4793,-0.0756 -0.71808,-0.16725 -0.81307,-0.31221 -0.0367,-0.0561 -0.11405,-0.22751 -0.17182,-0.38101 -0.2179,-0.57889 -0.4778,-1.02654 -0.87495,-1.50703 -0.11676,-0.14125 -0.23439,-0.33059 -0.2614,-0.42074 -0.0519,-0.17315 -0.0574,-0.15093 0.22768,-0.9234 0.0558,-0.15133 0.0928,-0.28266 0.082,-0.29184 -0.0107,-0.009 -0.28644,-0.17162 -0.61273,-0.36099 l -0.59324,-0.34431 -0.13596,0.15389 c -0.0748,0.0846 -0.24102,0.27584 -0.36943,0.42491 -0.29698,0.34475 -0.42887,0.38748 -0.91114,0.2952 -0.44051,-0.0843 -1.24773,-0.0843 -1.68825,0 -0.56889,0.10885 -0.56096,0.11337 -1.30232,-0.74247 l -0.11352,-0.13105 -0.60429,0.34864 c -0.33236,0.19176 -0.60445,0.37151 -0.60464,0.39945 -1.9e-4,0.028 0.0693,0.23104 0.15433,0.45133 0.0925,0.23941 0.15468,0.47855 0.15468,0.59452 0,0.20391 -0.0216,0.24292 -0.40073,0.72423 -0.11102,0.14093 -0.27407,0.37649 -0.36233,0.52346 -0.15236,0.25369 -0.43018,0.88998 -0.43018,0.98524 0,0.0723 -0.22211,0.31476 -0.34777,0.37961 -0.0898,0.0464 -0.89007,0.20199 -1.03857,0.20199 -0.0153,0 -0.0279,0.25854 -0.0279,0.57452 v 0.57453 h 1.55862 1.55861 z"
       id="path147"
       transform="scale(0.26458333)" /><path
       style="fill:#1a1a1a;fill-opacity:1;stroke:#0e8086;stroke-width:0.0167033;stroke-opacity:1"
       d="m 503.31456,389.741 c -0.18114,-0.0893 -0.30367,-0.24195 -0.3689,-0.45965 -0.0443,-0.14802 -0.0378,-0.19271 0.0553,-0.37842 0.18643,-0.37194 0.23718,-0.38989 1.14719,-0.40579 l 0.79241,-0.0138 v -0.72365 -0.72365 l -3.01625,-0.014 -3.01625,-0.014 -0.34595,-0.12216 c -0.44844,-0.15835 -0.74343,-0.35067 -1.05504,-0.68787 -0.26889,-0.29097 -0.47336,-0.67298 -0.57151,-1.06778 -0.0497,-0.20007 -0.0604,-1.39633 -0.0604,-6.76171 0,-6.18993 0.004,-6.53201 0.0808,-6.78381 0.26952,-0.88394 0.97568,-1.53693 1.8637,-1.72338 0.466,-0.0978 19.59815,-0.0978 20.06415,0 0.88802,0.18645 1.59418,0.83944 1.8637,1.72338 0.0768,0.25183 0.0809,0.59526 0.0809,6.828 v 6.56284 l -0.12238,0.34594 c -0.0673,0.19027 -0.18824,0.44881 -0.26874,0.57453 -0.19077,0.2979 -0.5966,0.66568 -0.90796,0.82282 -0.5045,0.25461 -0.60576,0.26754 -2.09563,0.26754 -1.3234,0 -1.37283,-0.003 -1.5219,-0.0952 -0.1534,-0.0948 -0.31751,-0.37361 -0.31943,-0.54269 -0.002,-0.15556 0.17976,-0.46218 0.32779,-0.55366 0.13751,-0.085 0.21522,-0.0901 1.38096,-0.0901 1.45045,0 1.5868,-0.0238 1.89398,-0.331 0.35481,-0.35482 0.33223,0.14571 0.31912,-7.0738 l -0.0116,-6.40588 -0.0968,-0.18096 c -0.12351,-0.23081 -0.34947,-0.4291 -0.59458,-0.52175 -0.17694,-0.0669 -0.9858,-0.0718 -10.02567,-0.0607 l -9.83321,0.0121 -0.18355,0.0982 c -0.10095,0.054 -0.24571,0.1733 -0.32168,0.26516 -0.28224,0.34127 -0.26817,-0.0212 -0.26817,6.90662 0,7.0967 -0.0232,6.60828 0.3303,6.96175 0.354,0.354 -0.1631,0.33028 7.20178,0.33036 6.14176,6e-5 6.55322,0.005 6.69757,0.0773 0.0846,0.0425 0.19894,0.14485 0.25411,0.22744 0.0979,0.14661 0.10032,0.17768 0.10032,1.31198 v 1.16182 l 0.79241,0.0138 c 0.86434,0.0151 0.91076,0.0281 1.12476,0.31471 0.13769,0.18443 0.12124,0.50955 -0.0362,0.71602 -0.23294,0.3054 0.14161,0.28694 -5.80174,0.28583 -4.87374,-9.1e-4 -5.3958,-0.008 -5.52753,-0.0727 z m 8.11254,-1.99237 -0.0121,-0.74025 h -2.56326 -2.56327 l -0.0121,0.74025 -0.0121,0.74025 h 2.5875 2.58749 z"
       id="path148"
       transform="scale(0.26458333)" /></g></svg>
